# xmcd CD database file generated by Grip 2.96
# 
# Track frame offsets:
#       150
#       7152
#       50692
#       82762
#       125112
#       146835
#       165862
#       184830
#       210167
#       255537
#       285737
#       301250
#       314712
# 
# Disc length: 4417 seconds
# 
# Revision: 0
# Processed by: cddbd v1.4PL0 Copyright (c) Steve Scherf et al.
# Submitted via: Grip 2.96
# 
DISCID=b5113f0d
DTITLE=Geir Wentzel Band - 97% Soul Disc 2
DYEAR=1900
DGENRE=
TTITLE0=Window shopping
TTITLE1=Cissy strut/Here comes the meter man/I wish
TTITLE2=Me and Mrs Jones/La cucaracha
TTITLE3=Master blaster
TTITLE4=Nightwalk blues/Donna Lee
TTITLE5=Respect
TTITLE6=Groovin'
TTITLE7=Knock on wood
TTITLE8=Hold on I'm coming
TTITLE9=Bast, trumpet
TTITLE10=Rock steady
TTITLE11=Take what I want
TTITLE12=Baby I love you
EXTD=
EXTT0=
EXTT1=
EXTT2=
EXTT3=
EXTT4=
EXTT5=
EXTT6=
EXTT7=
EXTT8=
EXTT9=
EXTT10=
EXTT11=
EXTT12=
PLAYORDER=
